<?xml version="1.0" encoding="utf-8"?>
<!-- Generator: Adobe Illustrator 23.0.4, SVG Export Plug-In . SVG Version: 6.00 Build 0)  -->
<svg version="1.1" id="Layer_1" xmlns="http://www.w3.org/2000/svg" xmlns:xlink="http://www.w3.org/1999/xlink" x="0px" y="0px"
	 viewBox="0 0 15 15" style="enable-background:new 0 0 15 15;" xml:space="preserve">
<style type="text/css">
	.st0{opacity:0.7;fill-rule:evenodd;clip-rule:evenodd;fill:#E64B89;enable-background:new    ;}
</style>
<path class="st0" d="M14.4,5.8c-0.3-1.4-1-2.7-2-3.7c-2.1-2.1-5.2-2.7-8-1.6C3.6,0.9,2.8,1.5,2.1,2.1C1.5,2.8,0.9,3.6,0.6,4.4
	C0.2,5.3,0,6.3,0,7.3c0,1.9,0.8,3.8,2.1,5.1c2.8,2.8,7.4,2.8,10.3,0c0,0,0,0,0,0C14.1,10.7,14.9,8.2,14.4,5.8L14.4,5.8z M13.5,7.2
	c-0.1,0-2.2-0.5-4.3-0.2C9,6.6,8.8,6.2,8.6,5.8c2.5-1,3.4-2.4,3.5-2.5C13,4.4,13.5,5.8,13.5,7.2z M11.4,2.6c0,0-0.9,1.4-3.2,2.2
	C7.4,3.6,6.7,2.4,5.8,1.2C7.8,0.8,9.9,1.3,11.4,2.6z M5.8,1.2L5.8,1.2L5.8,1.2C5.8,1.2,5.8,1.2,5.8,1.2z M4.6,1.7
	c0.1,0.1,1.2,1.7,2.3,3.6C3.9,6,1.4,6,1.2,6C1.6,4.1,2.9,2.5,4.6,1.7z M1.1,7.3c0-0.1,0-0.1,0-0.2c0.1,0,3.2,0.1,6.4-0.9
	c0.2,0.3,0.3,0.7,0.5,1.1c-0.1,0-0.2,0-0.2,0.1c-3.4,1.1-5.1,4.1-5.1,4.1l0,0C1.6,10.3,1.1,8.8,1.1,7.3L1.1,7.3z M7.3,13.5
	c-1.4,0-2.8-0.5-4-1.4c0.1,0.1,0.1,0.1,0.1,0.1s1.2-2.6,4.9-3.9c0,0,0,0,0,0c0.6,1.5,1,3.1,1.3,4.7C8.9,13.3,8.1,13.5,7.3,13.5z
	 M10.7,12.4C10.7,12,10.4,10.2,9.5,8c2-0.3,3.7,0.2,3.9,0.3C13.1,10,12.2,11.5,10.7,12.4L10.7,12.4z"/>
</svg>
