<svg xmlns="http://www.w3.org/2000/svg" width="15" height="15" viewBox="0 0 15 15">
    <path fill="#555B61" fill-rule="evenodd" d="M12.923 14.77H1.846A1.846 1.846 0 0 1 0 12.922V1.846C0 .826.827 0 1.846 0h11.077c1.02 0 1.846.827 1.846 1.846v11.077c0 1.02-.826 1.846-1.846 1.846zM7.385 4.522a2.86 2.86 0 0 0-2.596 1.662h-.002l-.013.031c-.027.06-.05.123-.074.186l-.033.09c-.02.063-.038.13-.055.195l-.024.093a2.93 2.93 0 0 0-.035.212c-.004.029-.01.057-.013.086a2.861 2.861 0 1 0 5.69 0l-.014-.086a2.929 2.929 0 0 0-.035-.212l-.024-.093a2.726 2.726 0 0 0-.055-.195l-.033-.09a2.876 2.876 0 0 0-.074-.186l-.013-.031H9.98a2.86 2.86 0 0 0-2.595-1.662zM13.108 2.4a.739.739 0 0 0-.739-.738h-1.477a.739.739 0 0 0-.738.738v1.477c0 .408.33.738.738.738h1.477c.408 0 .739-.33.739-.738V2.4zm0 3.785h-1.362a4.525 4.525 0 0 1-4.361 5.723 4.523 4.523 0 0 1-4.362-5.723H1.662v6.184c0 .408.33.739.738.739h9.97c.407 0 .738-.33.738-.739V6.185z" opacity=".7"/>
</svg>
