<?xml version="1.0" encoding="utf-8"?>
<!-- Generator: Adobe Illustrator 23.0.4, SVG Export Plug-In . SVG Version: 6.00 Build 0)  -->
<svg version="1.1" id="Layer_1" xmlns="http://www.w3.org/2000/svg" xmlns:xlink="http://www.w3.org/1999/xlink" x="0px" y="0px"
	 viewBox="0 0 15 15" style="enable-background:new 0 0 15 15;" xml:space="preserve">
<style type="text/css">
	.st0{opacity:0.7;fill-rule:evenodd;clip-rule:evenodd;fill:#316699;enable-background:new    ;}
</style>
<path class="st0" d="M12.9,14.8H1.8c-1,0-1.8-0.8-1.8-1.8c0,0,0,0,0,0V1.8C0,0.8,0.8,0,1.8,0h11.1c1,0,1.8,0.8,1.8,1.8v11.1
	C14.8,13.9,13.9,14.8,12.9,14.8L12.9,14.8z M7.4,4.5c-1.1,0-2.1,0.6-2.6,1.7h0l0,0c0,0.1-0.1,0.1-0.1,0.2l0,0.1c0,0.1,0,0.1-0.1,0.2
	l0,0.1c0,0.1,0,0.1,0,0.2c0,0,0,0.1,0,0.1c-0.2,1.6,1,3,2.5,3.1c1.6,0.2,3-1,3.1-2.5c0-0.2,0-0.4,0-0.6l0-0.1c0-0.1,0-0.1,0-0.2
	l0-0.1c0-0.1,0-0.1-0.1-0.2l0-0.1c0-0.1,0-0.1-0.1-0.2l0,0h0C9.5,5.2,8.5,4.5,7.4,4.5z M13.1,2.4c0-0.4-0.3-0.7-0.7-0.7h-1.5
	c-0.4,0-0.7,0.3-0.7,0.7v1.5c0,0.4,0.3,0.7,0.7,0.7h1.5c0.4,0,0.7-0.3,0.7-0.7V2.4z M13.1,6.2h-1.4c0.7,2.4-0.8,4.9-3.2,5.6
	c-0.4,0.1-0.8,0.2-1.2,0.2c-2.5,0-4.5-2-4.5-4.5C2.9,7,2.9,6.6,3,6.2H1.7v6.2c0,0.4,0.3,0.7,0.7,0.7h10c0.4,0,0.7-0.3,0.7-0.7
	C13.1,12.4,13.1,6.2,13.1,6.2z"/>
</svg>
