<?xml version="1.0" encoding="utf-8"?>
<!-- Generator: Adobe Illustrator 23.0.4, SVG Export Plug-In . SVG Version: 6.00 Build 0)  -->
<svg version="1.1" id="Layer_1" xmlns="http://www.w3.org/2000/svg" xmlns:xlink="http://www.w3.org/1999/xlink" x="0px" y="0px"
	 viewBox="0 0 15 12" style="enable-background:new 0 0 15 12;" xml:space="preserve">
<style type="text/css">
	.st0{opacity:0.7;fill-rule:evenodd;clip-rule:evenodd;fill:#00A0D1;enable-background:new    ;}
</style>
<path class="st0" d="M10,0c1.2,0,1.8,0.4,2.4,1c0.5,0,1.2-0.3,1.6-0.5l0.4-0.2c-0.2,0.6-0.5,1.1-1,1.4c-0.1,0.1-0.2,0.2-0.3,0.2v0
	c0.7,0,1.2-0.3,1.7-0.5v0c-0.3,0.4-0.6,0.9-1,1.2L13.3,3c0,0.7,0,1.4-0.1,1.9c-0.8,3.4-2.8,5.7-5.9,6.7c-1.1,0.4-3,0.5-4.3,0.2
	c-0.6-0.1-1.2-0.3-1.8-0.6c-0.3-0.1-0.6-0.3-0.9-0.4L0,10.6c0.3,0,0.6,0.1,1,0c0.3,0,0.6,0,0.9-0.1c0.7-0.1,1.3-0.4,1.8-0.7
	c0.3-0.1,0.6-0.3,0.8-0.5c-0.3,0-0.6-0.1-0.9-0.2c-1-0.3-1.5-1-1.9-1.9c0.3,0,1.2,0.1,1.4-0.1C2.6,7.2,2.3,7,2,6.8
	C1.2,6.3,0.6,5.5,0.6,4.2l0.3,0.1c0.2,0.1,0.4,0.1,0.6,0.2c0.1,0,0.3,0.1,0.4,0h0C1.8,4.4,1.5,4.3,1.4,4.1c-0.5-0.6-1-1.6-0.7-2.7
	C0.8,1,0.9,0.8,1,0.6l0,0c0.1,0.1,0.2,0.2,0.3,0.3c0.3,0.3,0.6,0.6,0.9,0.9c1.1,0.9,2.1,1.4,3.7,1.8c0.4,0.1,0.9,0.2,1.4,0.2
	c-0.1-0.4-0.1-1,0-1.4c0.3-1,0.9-1.7,1.7-2C9.2,0.2,9.4,0.1,9.7,0L10,0"/>
</svg>
