<svg xmlns="http://www.w3.org/2000/svg" width="15" height="12" viewBox="0 0 15 12">
    <path fill="#555B61" fill-rule="evenodd" d="M10.046 0c1.174-.02 1.798.408 2.395.951.506-.043 1.164-.326 1.552-.523l.377-.206c-.221.598-.522 1.067-.983 1.422-.103.08-.204.186-.333.236v.007c.658-.006 1.2-.303 1.715-.464v.008c-.27.43-.636.866-1.027 1.179l-.473.375c.008.697-.01 1.361-.14 1.946-.757 3.401-2.763 5.71-5.937 6.7-1.14.354-2.981.5-4.287.176a11.074 11.074 0 0 1-1.781-.582 7.131 7.131 0 0 1-.858-.442L0 10.621c.294.008.64.09.968.037.298-.049.59-.036.865-.096.686-.15 1.294-.35 1.819-.656.254-.149.64-.324.82-.538-.34.006-.649-.073-.902-.162-.98-.346-1.55-.983-1.922-1.939.297.033 1.153.11 1.353-.058-.374-.021-.733-.238-.99-.399C1.222 6.317.579 5.49.584 4.216l.31.148c.198.083.4.128.636.177.1.02.3.079.414.036H1.93c-.152-.177-.4-.296-.554-.486-.506-.629-.98-1.596-.68-2.749C.77 1.05.89.792 1.02.553l.015.008c.059.123.19.214.273.317.259.32.577.608.902.862 1.107.865 2.103 1.397 3.704 1.791a5.8 5.8 0 0 0 1.36.177c-.137-.397-.093-1.039.015-1.423.27-.965.855-1.66 1.714-2.034a3.66 3.66 0 0 1 .673-.206l.37-.044" opacity=".7"/>
</svg>
